<svg id="Layer_1" data-name="Layer 1" xmlns="http://www.w3.org/2000/svg" viewBox="0 0 99.72 73.89"><defs><style>.cls-1{fill:#99d8e2;}.cls-2{fill:#133c64;}</style></defs><title>Dev_Icon_NEWER_Pantone</title><path class="cls-1" d="M49.87,59.91a1.7,1.7,0,0,1,2.14,0l2.52,2.52a1.83,1.83,0,0,1,.38,1.13,1.37,1.37,0,0,1-.38,1l-15,15.11,15,15.12a1.37,1.37,0,0,1,.38,1,1.83,1.83,0,0,1-.38,1.13L52,99.34a1.51,1.51,0,0,1-1.07.5,1.75,1.75,0,0,1-1.07-.38L31.35,80.69a1.37,1.37,0,0,1-.38-1,1.85,1.85,0,0,1,.38-1.13Z" transform="translate(-30.97 -29.99)"/><path class="cls-1" d="M130.32,78.55a1.85,1.85,0,0,1,.38,1.13,1.37,1.37,0,0,1-.38,1L111.8,99.46a1.77,1.77,0,0,1-1.07.38,1.51,1.51,0,0,1-1.07-.5l-2.52-2.4a1.83,1.83,0,0,1-.38-1.13,1.37,1.37,0,0,1,.38-1l15-15.12-15-15.11a1.37,1.37,0,0,1-.38-1,1.83,1.83,0,0,1,.38-1.13l2.52-2.52a1.69,1.69,0,0,1,1.07-.38,1.71,1.71,0,0,1,1.07.38Z" transform="translate(-30.97 -29.99)"/><rect class="cls-2" x="47.46" y="73.97" width="47.2" height="12.63" rx="6.31" transform="translate(120.37 -20.77) rotate(90)"/><rect class="cls-2" x="53.66" y="60.62" width="73.89" height="12.63" rx="6.31" transform="translate(126.57 -53.66) rotate(90)"/></svg>