<svg id="Layer_1" data-name="Layer 1" xmlns="http://www.w3.org/2000/svg" viewBox="0 0 542.71 172.71"><defs><style>.cls-1{fill:#98d8e1;}.cls-2{fill:#163c64;}.cls-3{fill:#010101;}</style></defs><title>Dev_Logo_Stacked_NEWER_Pantone</title><path class="cls-1" d="M62.11,68.16a2.76,2.76,0,0,1,3.46,0l4.06,4.06a3,3,0,0,1,.61,1.83,2.23,2.23,0,0,1-.61,1.62L45.46,100,69.63,124.4a2.23,2.23,0,0,1,.61,1.63,3,3,0,0,1-.61,1.82l-4.06,3.86a2.45,2.45,0,0,1-1.73.81,2.81,2.81,0,0,1-1.73-.61L32.26,101.66a2.22,2.22,0,0,1-.6-1.62,3,3,0,0,1,.6-1.83Z"/><path class="cls-1" d="M191.78,98.21a2.94,2.94,0,0,1,.61,1.83,2.19,2.19,0,0,1-.61,1.62l-29.85,30.25a2.78,2.78,0,0,1-1.72.61,2.43,2.43,0,0,1-1.73-.81l-4.06-3.86a2.94,2.94,0,0,1-.61-1.82,2.19,2.19,0,0,1,.61-1.63L178.58,100,154.42,75.67a2.19,2.19,0,0,1-.61-1.62,2.94,2.94,0,0,1,.61-1.83l4.06-4.06a2.74,2.74,0,0,1,3.45,0Z"/><rect class="cls-2" x="58.23" y="90.83" width="76.08" height="20.35" rx="10.18" transform="translate(197.28 4.73) rotate(90)"/><rect class="cls-2" x="68.22" y="69.31" width="119.1" height="20.35" rx="10.18" transform="translate(207.27 -48.28) rotate(90)"/><path class="cls-3" d="M235.34,83.43q-7.38,0-13.17-6.25a22,22,0,0,1-5.79-15.52q0-9.25,5.64-15.17a17.72,17.72,0,0,1,13.2-5.9,15.83,15.83,0,0,1,12.35,5.32V25.53h11.58V82.82H247.57V77.34A15,15,0,0,1,235.34,83.43ZM228,62.13a11.57,11.57,0,0,0,3,8.22,9.35,9.35,0,0,0,7,3.2,8.77,8.77,0,0,0,6.83-3.2,12,12,0,0,0,2.82-8.26,12.66,12.66,0,0,0-2.82-8.42A8.68,8.68,0,0,0,238,50.32a9,9,0,0,0-7,3.39A12.42,12.42,0,0,0,228,62.13Z"/><path class="cls-3" d="M299.92,76.8a23.26,23.26,0,0,1-16.49,6.63q-9.45,0-15.63-5.82T261.62,62q0-9.8,6.3-15.59a21.2,21.2,0,0,1,14.86-5.79,21.48,21.48,0,0,1,14.55,5.17q6,5.18,6,14.21v6.17H273.05a8.24,8.24,0,0,0,3.55,5.56,11.37,11.37,0,0,0,6.79,2.16,13.31,13.31,0,0,0,10-4.09ZM288.8,52.17a8.77,8.77,0,0,0-5.83-2,10.42,10.42,0,0,0-6.29,2.09,7.94,7.94,0,0,0-3.32,5.63h18.22A8.25,8.25,0,0,0,288.8,52.17Z"/><path class="cls-3" d="M316.05,82.82,299.61,41.21h12L322,67.38l10.34-26.17h12L327.94,82.82Z"/><path class="cls-3" d="M253.9,136.41H243v-5A13.67,13.67,0,0,1,231.94,137a16.47,16.47,0,0,1-11.08-3.82A12.74,12.74,0,0,1,216.38,123q0-6.37,4.64-9.53t12.66-3.17h8.64v-.23q0-6.64-7-6.64a18.94,18.94,0,0,0-6.37,1.2,20.45,20.45,0,0,0-5.67,3l-5.18-7.49a31,31,0,0,1,18.69-5.94q7.56,0,12.35,3.78t4.78,12Zm-11.65-15.83v-2H235q-6.94,0-7,4.32a4,4,0,0,0,1.66,3.44,8,8,0,0,0,4.75,1.2,8.44,8.44,0,0,0,5.44-1.89A6.16,6.16,0,0,0,242.25,120.58Z"/><path class="cls-3" d="M269.88,113.24v23.17H258.3V94.87h11.58V99.5q5.25-5.32,11.82-5.32a14.62,14.62,0,0,1,11,4.63q4.44,4.64,4.44,12.35v25.25H285.56V112.94q0-9.59-7-9.58a8.44,8.44,0,0,0-6.06,2.51C270.75,107.55,269.88,110,269.88,113.24Z"/><path class="cls-3" d="M336.74,136.41H325.86v-5A13.67,13.67,0,0,1,314.78,137a16.46,16.46,0,0,1-11.08-3.82A12.71,12.71,0,0,1,299.22,123q0-6.37,4.63-9.53t12.66-3.17h8.65v-.23q0-6.64-7-6.64a18.94,18.94,0,0,0-6.37,1.2,20.66,20.66,0,0,0-5.68,3l-5.17-7.49a31,31,0,0,1,18.68-5.94q7.57,0,12.35,3.78t4.79,12Zm-11.66-15.83v-2h-7.25q-6.94,0-6.95,4.32a4,4,0,0,0,1.66,3.44,8,8,0,0,0,4.75,1.2,8.46,8.46,0,0,0,5.44-1.89A6.16,6.16,0,0,0,325.08,120.58Z"/><path class="cls-3" d="M352.72,136.41H341.14V79.12h11.58Z"/><path class="cls-3" d="M364.69,152.77q-6.1,0-11.51-4.94l5.25-8.57a8.72,8.72,0,0,0,6,2.86,3.37,3.37,0,0,0,2.77-1.58,5.57,5.57,0,0,0,1.16-3.36q0-1.78-16.05-42.31h12.35l10.11,25.86,10.11-25.86h12.36L378,143.82a13.85,13.85,0,0,1-5.29,6.6A14.27,14.27,0,0,1,364.69,152.77Z"/><path class="cls-3" d="M410.7,103.21v18.6a5.36,5.36,0,0,0,1.23,3.75,3.87,3.87,0,0,0,2.94,1.35,6.7,6.7,0,0,0,5.48-2.93l4.32,8.1q-5.4,4.95-11.38,4.94a14.13,14.13,0,0,1-10.12-3.93Q399,129.15,399,122.35V103.21h-4.86V94.87H399V82.44H410.7V94.87h10v8.34Z"/><path class="cls-3" d="M425.64,89.58a6.89,6.89,0,1,1,4.82,2A6.52,6.52,0,0,1,425.64,89.58Zm10.61,46.83H424.67V94.87h11.58Z"/><path class="cls-3" d="M461,126.75c3.86,0,7.33-1.92,10.42-5.79l6.87,7.73q-8,8.33-17.37,8.33a22.55,22.55,0,0,1-15.79-5.9q-6.45-5.91-6.45-15.44a20.09,20.09,0,0,1,6.53-15.52,22.13,22.13,0,0,1,15.48-6A24,24,0,0,1,469.72,96a22.92,22.92,0,0,1,8.07,5.48l-6,7.87a13.6,13.6,0,0,0-4.9-3.7,13.77,13.77,0,0,0-5.75-1.31,11.29,11.29,0,0,0-7.84,3A10.59,10.59,0,0,0,450,115.6c0,3.53,1.1,6.27,3.28,8.22A11.15,11.15,0,0,0,461,126.75Z"/><path class="cls-3" d="M511.06,123.47a12.1,12.1,0,0,1-4.52,9.85,17.47,17.47,0,0,1-11.46,3.7,30.56,30.56,0,0,1-9.65-1.66,28.4,28.4,0,0,1-9-4.9l5.1-7.26a22.16,22.16,0,0,0,13.82,5,6.2,6.2,0,0,0,3.55-.89,2.7,2.7,0,0,0,1.31-2.35,3.38,3.38,0,0,0-1.81-2.7,20.24,20.24,0,0,0-5.25-2.32q-3.44-1.08-5.25-1.85a29.64,29.64,0,0,1-4.13-2.24,9.59,9.59,0,0,1-4.71-8.69,11.38,11.38,0,0,1,4.63-9.38q4.64-3.61,12-3.62t14.67,4.94L506,106.84a19,19,0,0,0-10.77-3.71q-5.35,0-5.36,2.93a2.8,2.8,0,0,0,1.7,2.55,33.84,33.84,0,0,0,5.63,2.16c2.63.83,4.49,1.46,5.6,1.9a28.07,28.07,0,0,1,4,2Q511.06,117.34,511.06,123.47Z"/></svg>