<?xml version="1.0" standalone="no"?>
<!DOCTYPE svg PUBLIC "-//W3C//DTD SVG 20010904//EN"
 "http://www.w3.org/TR/2001/REC-SVG-20010904/DTD/svg10.dtd">
<svg version="1.0" xmlns="http://www.w3.org/2000/svg"
 width="163.000000pt" height="163.000000pt" viewBox="0 0 163.000000 163.000000"
 preserveAspectRatio="xMidYMid meet">
<metadata>
Created by potrace 1.11, written by Peter Selinger 2001-2013
</metadata>
<g transform="translate(0.000000,163.000000) scale(0.100000,-0.100000)"
fill="#000000" stroke="none">
<path d="M861 1164 c-20 -26 -21 -38 -21 -351 l0 -324 25 -24 c30 -31 65 -32
93 -2 22 23 22 28 22 353 l0 331 -23 21 c-32 30 -71 28 -96 -4z"/>
<path d="M667 902 c-15 -16 -17 -47 -17 -220 0 -189 1 -203 20 -222 24 -24 57
-26 88 -4 22 15 22 20 22 223 0 189 -2 209 -18 224 -25 22 -75 21 -95 -1z"/>
<path d="M405 790 l-100 -100 106 -105 105 -106 23 25 24 25 -79 81 -78 81 77
77 c74 75 77 78 61 100 -8 12 -21 22 -27 22 -7 0 -57 -45 -112 -100z"/>
<path d="M1085 870 c-19 -20 -18 -22 60 -100 l80 -80 -78 -78 c-42 -42 -77
-83 -77 -90 0 -7 11 -18 25 -24 25 -11 31 -7 120 82 52 52 95 102 95 110 0 17
-179 200 -196 200 -6 0 -19 -9 -29 -20z"/>
</g>
</svg>
